<svg xmlns="http://www.w3.org/2000/svg" x="0px" y="0px" viewBox="0 0 32 32"><path fill="#FFF" d="M28.6 32H3.4C1.5 32 0 30.5 0 28.6V3.4C0 1.5 1.5 0 3.4 0h25.1c2 0 3.5 1.5 3.5 3.4v25.1c0 2-1.5 3.5-3.4 3.5z"/><path d="M23.9 9.1c-.3-1-.7-2.2-.4-3.1 0 0 0-.1.1-.1.4.3.9.5 1.3.5.7-.1 1.3-.5 1.6-1.1.3-.6.3-1.4 0-2-.4-.7-1.1-1.2-1.9-1.3-1 0-1.9.3-2.5 1.1-.2.2-.4.5-.6.7-.5.7-.8 1.5-.9 2.3h-9.3c-.1-.8-.4-1.6-.9-2.3-.2-.3-.4-.5-.6-.7C9.3 2.3 8.3 2 7.4 2c-.8.1-1.5.6-1.9 1.3-.3.6-.3 1.4 0 2 .3.6.9 1.1 1.6 1.1.5 0 1-.1 1.4-.5V6c.3 1-.1 2.1-.4 3.1v.1c-.4 1.3-1 2.6-1.6 3.8-1.1 2.4-2.3 4.9-2.2 7.8.1 2.8 1.9 5.2 5.2 7 0 .1-.1.3-.1.4v.5c0 .8.6 1.4 1.4 1.4h10.3c.8 0 1.4-.6 1.4-1.4v-.5c0-.1 0-.3-.1-.4 3.3-1.8 5-4.2 5.2-7 .1-2.8-1-5.3-2.2-7.8l-1.5-3.9zM20.7 8h-9.3c0-.3.1-.6.1-.9h9.2c-.1.2-.1.6 0 .9zm-10.2 3.1c.3-.7.5-1.5.7-2.2h.6v14.8c-.4-.2-.8-.3-1.1-.5-1.4-.8-2.4-2.5-2.5-4.5-.1-1.9.7-3.8 1.5-5.6.2-.7.5-1.3.8-2zm2.2-2.2h.9v15.3c-.3-.1-.6-.1-.9-.2V8.9zm1.9 0h.9v15.5h-.9V8.9zm1.9 0h.9v15.4h-.9V8.9zm1.8 0h.9V24c-.3.1-.6.2-.9.2V8.9zm1.9 0h.6c.2.8.4 1.5.7 2.2.2.7.5 1.3.8 2 .8 1.8 1.6 3.7 1.5 5.6-.1 2-1.1 3.7-2.5 4.5-.4.2-.7.4-1.1.5V8.9zm1.4 19.7c0 .3-.2.5-.5.5H10.8c-.3 0-.5-.2-.5-.5v-.5c0-.3.2-.5.5-.5h10.3c.3 0 .5.2.5.5v.5zm5.1-7.9c-.1 2.5-1.7 4.6-4.8 6.3-.2-.2-.5-.2-.8-.2H10.8c-.3 0-.5.1-.8.2-3-1.7-4.7-3.8-4.8-6.3-.1-2.6.9-4.9 2.1-7.3.7-1.3 1.2-2.6 1.7-4v-.1c.3-1 .7-2.3.4-3.6 0 0-.3-1-.8-1-.2 0-.4 0-.5.2-.2.3-.6.5-1 .6-.3-.1-.6-.4-.8-.7-.2-.4-.2-.8 0-1.1.3-.4.7-.7 1.2-.8.7 0 1.3.3 1.8.8.2.2.3.4.5.6.5.7.7 1.5.7 2.3 0 .6 0 1.2-.1 1.8-.2.8-.4 1.7-.7 2.4-.2.6-.5 1.3-.8 1.9-.8 1.9-1.7 3.9-1.6 6 .1 2.3 1.3 4.3 3 5.2.6.4 1.2.6 1.9.8.6.2 1.3.3 2 .4.6.1 1.3.1 1.9.1.6 0 1.3 0 1.9-.1.7-.1 1.3-.2 2-.4s1.3-.5 1.9-.8c1.7-1 2.8-2.9 3-5.2.1-2.2-.7-4.1-1.6-6-.3-.7-.6-1.3-.8-1.9-.3-.8-.6-1.6-.7-2.4-.1-.6-.2-1.2-.1-1.8 0-.8.3-1.6.7-2.3.1-.2.3-.4.5-.6.5-.5 1.1-.8 1.8-.8.3.1.7.4 1 .8.2.3.2.7 0 1.1-.1.3-.5.6-.8.6-.4 0-.8-.2-1-.6-.1-.1-.3-.2-.5-.2-.4.1-.8 1-.8 1-.3 1.4.1 2.7.4 3.8v.1c.4 1.3 1 2.7 1.6 3.9 1.2 2.4 2.2 4.7 2.1 7.3z"/><path d="M7.1 21.6c0 .3-.2.5-.5.5s-.5-.2-.5-.5.2-.5.5-.5.5.2.5.5z"/><path d="M10.1 24.9c-.9-.6-1.7-1.3-2.4-2.3-.1-.1-.3-.2-.4-.2-.2 0-.3.1-.4.3s-.1.3 0 .5c.7 1 1.6 1.9 2.7 2.5.1.1.3.1.5 0 .1-.1.2-.2.2-.4.1-.1 0-.3-.2-.4z"/></svg>
