<?xml version="1.0" encoding="UTF-8" standalone="no"?><!DOCTYPE svg PUBLIC "-//W3C//DTD SVG 1.1//EN" "http://www.w3.org/Graphics/SVG/1.1/DTD/svg11.dtd"><svg width="100%" height="100%" viewBox="0 0 300 260" version="1.1" xmlns="http://www.w3.org/2000/svg" xmlns:xlink="http://www.w3.org/1999/xlink" xml:space="preserve" xmlns:serif="http://www.serif.com/" style="fill-rule:evenodd;clip-rule:evenodd;stroke-linejoin:round;stroke-miterlimit:2;"><rect id="background" x="-479.6" y="-19.2" width="1259.2" height="298.4" style="fill:none;"/><g><path id="emblem" d="M149.998,0l-66.821,115.822c25.354,-7.822 52.631,-8.982 79.071,-2.741l22.583,5.335l-21.247,90.163l-22.615,-5.335c-17.372,-4.101 -35.481,-0.037 -49.487,11.043c-7.006,5.545 -12.525,12.508 -16.308,20.318l-20.904,-10.121c5.289,-10.931 13.021,-20.681 22.786,-28.419c19.536,-15.475 45.007,-21.158 69.258,-15.432l10.591,-44.937c-37.939,-8.951 -77.925,-0.037 -108.489,24.174c-30.564,24.209 -48.416,61.115 -48.416,100.121l300,0.009l-150.002,-260Z" style="fill:#60a5fa;fill-rule:nonzero;"/></g></svg>