<svg xmlns="http://www.w3.org/2000/svg" x="0px" y="0px" viewBox="0 0 32 32"><path d="M25.1 8.2c-.4-1.2-.8-2.5-.5-3.6 0 0 0-.1.1-.1.4.4 1 .6 1.5.5.8-.1 1.5-.6 1.8-1.3.4-.7.4-1.6 0-2.3C27.6.6 26.8.1 25.9 0c-1.1-.1-2.2.4-2.9 1.2-.2.3-.5.5-.7.8-.5.8-.9 1.7-1 2.7H10.7c-.1-1-.4-1.9-1-2.7-.2-.3-.4-.5-.7-.8C8.3.4 7.2 0 6.1 0 5.2.1 4.4.6 4 1.4c-.4.7-.4 1.6 0 2.3.3.7 1 1.2 1.8 1.3.6 0 1.1-.2 1.5-.5 0 0 0 .1.1.1.3 1.1-.1 2.4-.4 3.5v.1c-.5 1.5-1.1 2.9-1.8 4.3-1.3 2.8-2.6 5.6-2.5 8.9.2 3.2 2.1 5.9 5.9 8 0 .2-.1.3-.1.5v.5c0 .9.7 1.6 1.6 1.6h11.8c.9 0 1.6-.7 1.6-1.6v-.5c0-.2 0-.3-.1-.5 3.8-2.1 5.7-4.8 5.9-8 .2-3.2-1.2-6.1-2.5-8.9-.6-1.4-1.2-2.8-1.7-4.3zm-3.8-1.4H10.7c0-.4.1-.7.1-1.1h10.5v1.1zM9.7 10.4c.3-.8.6-1.7.8-2.5h.7v16.9c-.4-.2-.9-.4-1.3-.6-1.6-.9-2.7-2.8-2.8-5.1-.1-2.2.8-4.3 1.7-6.4.3-.8.6-1.5.9-2.3zm2.5-2.5h1.1v17.5c-.4-.1-.7-.1-1.1-.2V7.9zm2.2 0h1.1v17.7c-.4 0-.7 0-1.1-.1V7.9zm2.1 0h1.1v17.6c-.3 0-.7 0-1.1.1V7.9zm2.2 0h1.1v17.2c-.4.1-.7.2-1.1.2V7.9zm2.1 0h.7c.2.9.5 1.7.8 2.5.3.7.6 1.5.9 2.2.9 2.1 1.8 4.2 1.7 6.4-.1 2.3-1.2 4.2-2.8 5.1-.4.2-.8.4-1.3.6V7.9zm1.6 22.5c0 .3-.2.5-.5.5H10.1c-.3 0-.5-.2-.5-.5v-.5c0-.3.2-.5.5-.5h11.8c.3 0 .5.2.5.5v.5zm5.8-9.1c-.1 2.9-2 5.3-5.5 7.2-.3-.2-.6-.3-.9-.3H10.1c-.3 0-.6.1-.9.3-3.5-1.9-5.3-4.3-5.5-7.2-.1-3 1.1-5.6 2.4-8.4.7-1.4 1.4-2.9 1.9-4.4v-.1c.4-1.2.9-2.8.5-4.2 0 0-.4-1.1-.9-1.2-.3 0-.5.1-.6.3-.2.4-.7.6-1.1.6-.4 0-.8-.3-.9-.7-.2-.4-.2-.9 0-1.2.3-.5.8-.8 1.3-.9.8 0 1.5.3 2 .9.2.2.4.4.6.7.5.8.8 1.7.8 2.6 0 .7 0 1.3-.2 2-.2.9-.5 1.8-.8 2.7-.3.7-.6 1.4-.9 2.2-1 2.2-1.9 4.4-1.8 6.9.2 2.6 1.4 4.9 3.4 6 .7.4 1.4.7 2.2 1 .7.2 1.5.4 2.2.5.7.1 1.5.1 2.2.1.7 0 1.5 0 2.2-.1.8-.1 1.5-.2 2.2-.5.8-.2 1.5-.6 2.2-1 2-1.1 3.2-3.3 3.4-6 .2-2.5-.8-4.7-1.8-6.9-.3-.7-.6-1.5-.9-2.2-.4-.9-.6-1.8-.8-2.8-.1-.7-.2-1.3-.2-2 0-.9.3-1.8.8-2.6.2-.2.4-.5.6-.7.5-.6 1.3-.9 2-.9.6.1 1 .4 1.3.9.2.4.2.9 0 1.2-.2.4-.5.7-.9.7-.5 0-.9-.3-1.1-.6-.1-.2-.3-.2-.5-.2-.5.1-.9 1.2-.9 1.2-.4 1.4.1 2.9.5 4.2v.1c.5 1.5 1.1 3 1.8 4.5 1.3 2.7 2.5 5.4 2.3 8.3z"/><path d="M5.8 22.4c0 .3-.2.5-.5.5s-.5-.2-.5-.5.2-.5.5-.5c.3-.1.5.2.5.5z"/><path d="M9.3 26.2c-1.1-.7-2-1.5-2.7-2.6-.1-.2-.3-.2-.5-.2s-.4.1-.4.3-.1.4 0 .5c.8 1.2 1.8 2.1 3 2.9.2.1.4.1.5 0 .2-.1.3-.3.3-.5.1-.1 0-.3-.2-.4z"/></svg>
