<svg xmlns="http://www.w3.org/2000/svg" viewBox="0 0 32 32"><path d="M8.5 28c-.8 0-1.5-.7-1.5-1.5V3.4c0-.8.7-1.5 1.5-1.5s1.5.7 1.5 1.5v23.1c0 .8-.6 1.5-1.5 1.5z"/><path d="M8.5 30.1c-.4 0-.8-.2-1.1-.5L.4 22c-.6-.6-.5-1.6.1-2.1.6-.6 1.6-.5 2.1.1l5.9 6.4 5.9-6.4c.6-.6 1.5-.6 2.1-.1.6.6.6 1.5.1 2.1l-7 7.6c-.2.3-.6.5-1.1.5z"/><g><path d="M23.5 4c.8 0 1.5.7 1.5 1.5v23.1c0 .8-.7 1.5-1.5 1.5s-1.5-.7-1.5-1.5V5.5c0-.8.6-1.5 1.5-1.5z"/><path d="M23.5 1.9c.4 0 .8.2 1.1.5l7 7.6c.6.6.5 1.6-.1 2.1-.6.6-1.6.5-2.1-.1l-5.9-6.4-5.9 6.4c-.6.6-1.5.6-2.1.1-.6-.6-.6-1.5-.1-2.1l7-7.6c.2-.3.6-.5 1.1-.5z"/></g></svg>
