<?xml version="1.0" encoding="utf-8"?>
<svg version="1.1" id="Layer_1" xmlns="http://www.w3.org/2000/svg" xmlns:xlink="http://www.w3.org/1999/xlink" x="0px" y="0px"
	 width="32px" height="32px" viewBox="0 0 32 32" enable-background="new 0 0 32 32" xml:space="preserve">
<path d="M16,32c-0.3,0-0.7-0.1-1-0.4l-9.6-9.3c-0.5-0.5-0.5-1.3,0-1.9c0.6-0.5,1.4-0.5,1.9,0l8.7,8.4l8.7-8.4c0.5-0.5,1.4-0.5,1.9,0
	c0.6,0.5,0.6,1.3,0,1.9L17,31.6C16.7,31.9,16.3,32,16,32z"/>
<path d="M16,0c0.3,0,0.7,0.1,1,0.4l9.6,9.3c0.6,0.5,0.6,1.3,0,1.9c-0.5,0.5-1.4,0.5-1.9,0L16,3.2l-8.7,8.4c-0.5,0.5-1.4,0.5-1.9,0
	c-0.6-0.5-0.6-1.3,0-1.9L15,0.4C15.3,0.1,15.7,0,16,0z"/>
</svg>
