<svg xmlns="http://www.w3.org/2000/svg" x="0px" y="0px" viewBox="0 0 32 32"><path d="M26.83502 27.67462l-1.4142 1.4142L2.22794 5.89594l1.4142-1.4142z"/><path d="M21.9 23H9.4C4.1 23 2 21.3 2 17c0-4.1 5.2-5 5.4-5l.8-.1.1-.8c0-.1.1-.6.4-1.4L7.2 8.3c-.4.7-.6 1.4-.8 1.9C3.9 10.8 0 12.8 0 17c0 5.5 3 8 9.4 8h14.5l-2-2z"/><path d="M24.6 12c-.6-3.2-3.1-8-9.1-8-3.6 0-5.8 1.2-7.2 2.6L9.8 8c1-1.1 2.8-2 5.8-2 6.4 0 7.2 6.8 7.3 7.1l.1.9h.9c2.3 0 6.2.6 6.2 5 0 3-3 3.8-5.3 4l1.8 1.8C30 24.1 32 22 32 19c0-5.7-4.9-6.8-7.4-7z"/></svg>
