<?xml version="1.0" encoding="UTF-8"?>
<svg width="32px" height="32px" enable-background="new 0 0 32 32" version="1.1" viewBox="0 0 32 32" xml:space="preserve" xmlns="http://www.w3.org/2000/svg">
	<path d="m2.1 27.4 25.3-25.3c1.3-1.3 2-1.2 2.4-0.7l0.7 0.7c0.5 0.5 0.6 1.2-0.7 2.4l-25.1 25.4c-1.3 1.3-2 1.2-2.5 0.7l-0.7-0.7c-0.5-0.5-0.6-1.3 0.6-2.5z"/>
	<path d="m27.4 29.9-25.3-25.3c-1.3-1.3-1.2-2-0.7-2.4l0.7-0.7c0.6-0.5 1.3-0.6 2.5 0.7l25.3 25.2c1.3 1.3 1.2 2 0.7 2.5l-0.7 0.7c-0.5 0.4-1.3 0.5-2.5-0.7z"/>
</svg>
