<svg xmlns="http://www.w3.org/2000/svg" x="0px" y="0px" viewBox="0 0 32 32"><path d="M24.3 24.3v-7.7l-1.1.1c-3.8.5-6.6 3.8-6.6 7.6 0 4.3 3.5 7.7 7.7 7.7 3.8 0 7-2.8 7.6-6.7l.1-1.1-7.7.1zm-.1 5.7c-3.1 0-5.7-2.5-5.7-5.7 0-2.5 1.6-4.5 3.8-5.4h0v5.3c0 1.1.9 1.9 1.9 1.9h5.4c-.8 2.3-2.9 3.9-5.4 3.9z"/><path d="M26 22.6h6c-.4-3.1-2.9-5.6-6-6v6z"/><path d="M15 0H2C.9 0 0 .9 0 2v11c0 1.1.9 2 2 2h13c1.1 0 2-.9 2-2V2c0-1.1-.9-2-2-2zm0 13H2V2h13v11z"/><path d="M4.5 11c.6 0 1-.5 1-1V8.8c0-.5-.5-1-1-1s-1 .5-1 1V10c0 .5.5 1 1 1z"/><path d="M8.5 11c.6 0 1-.5 1-1V7c0-.5-.5-1-1-1s-1 .5-1 1v3c0 .5.5 1 1 1z"/><path d="M12.5 11c.6 0 1-.5 1-1.2V5.2c0-.7-.5-1.2-1-1.2s-1 .6-1 1.2v4.6c0 .7.5 1.2 1 1.2z"/><g><path d="M30 0h-8c-1.1 0-2 .9-2 2v9c0 1.1.9 2 2 2h8c1.1 0 2-.9 2-2V2c0-1.1-.9-2-2-2zm0 11h-8V2h8v9z"/><path d="M25 5.5h1.9c.7 0 1.2-.5 1.2-1s-.6-1-1.2-1h-1.8c-.7 0-1.2.5-1.2 1 0 .6.5 1 1.1 1z"/><path d="M25 9.4h.7c.7 0 1.2-.5 1.2-1s-.6-1-1.2-1h-.6c-.7 0-1.2.5-1.2 1 0 .6.5 1 1.1 1z"/></g><g><path d="M12 18H2c-1.1 0-2 .9-2 2v10c0 1.1.9 2 2 2h10c1.1 0 2-.9 2-2V20c0-1.1-.9-2-2-2zm0 12H2V20h10v10z"/><path d="M4.5 25.6l1.6.2c.2 0 .3.1.4.3l.6 1.5c.2.4.9.4 1-.1l1.4-4.8c.1-.4-.3-.8-.8-.6l-4.4 2.5c-.4.3-.3.9.2 1z"/></g></svg>
