<svg xmlns="http://www.w3.org/2000/svg" x="0px" y="0px" viewBox="0 0 32 32"><path d="M30.9 8.9c0-.9-.2-2.3-1.5-3.5.1-.6.1-1.6-.5-2.6-.7-1.3-2.1-2.1-4.2-2.6-.8-.1-1.8-.2-3-.2-.7 0-1.4 0-2.2.1-4.5-.1-8.8.4-9 .5L8.9.8C8.4.5 7.9.3 7.3.3H3.2C1.7.3.4 1.5.4 3v10.9c0 1.5 1.2 2.8 2.8 2.8h4.1c.5 0 .9-.1 1.3-.3.3.6.7 1.3 1.3 2l.1.1c2.1 1.6 4.6 7.4 5.5 9.8-.1.7-.2 2.3.6 3.2.3.4.8.6 1.3.6s2.3-.1 3.4-1.7c1.1-1.5 1.1-3.6.2-6.5-.8-2.4-.9-3.5-.8-3.9.4.1.7.2 1.1.2.1 0 1.5.3 3.3.4 2.5.1 4.3-.3 5.4-1.3 1.5-1.3 1.3-3 .8-4.1.4-.5.8-1.3.9-2.3 0-.9-.3-1.8-.9-2.7-.1-.3.1-.8.1-1.3zM3.3 2.3h3.9c.5 0 .9.4.9.9v10.4c0 .5-.4.9-.9.9H3.3c-.5 0-.9-.4-.9-.9V3.3c0-.6.4-1 .9-1zm26 10.7c0 .9-.7 1.5-.7 1.5-.3.3-.4.8-.2 1.1.1.1.8 1.4-.2 2.3-1.2 1.1-4.8.9-6.7.4h-.1c-.4-.1-.7-.1-1.1-.2-.4-.1-1-.1-1.4.3-.9.8-.8 2.5.3 5.7.7 2.1.7 3.8.1 4.7-.6.8-1.5.9-1.8.9-.2-.3-.2-1.1-.1-1.9v-.4c-.1-.3-2.9-8-5.8-10.3-.8-.8-1.1-1.8-1.2-2.2.1-.3.1-.5.1-.8V3.6c0-.2 0-.4-.1-.6l.6-.1s4.2-.5 8.4-.5h.1c1.9-.2 3.5-.1 4.7.1 1.5.3 2.4.9 2.8 1.6.4.8.2 1.7.2 1.7-.1.4 0 .8.3 1 .8.6 1.3 1.4 1.2 2.2 0 .6-.3 1.1-.3 1.1-.2.3-.2.8.1 1 .6.7.9 1.3.8 1.9z"/></svg>
