<?xml version="1.0" encoding="UTF-8" standalone="no"?><!DOCTYPE svg PUBLIC "-//W3C//DTD SVG 1.1//EN" "http://www.w3.org/Graphics/SVG/1.1/DTD/svg11.dtd"><svg width="100%" height="100%" viewBox="0 0 8 8" version="1.1" xmlns="http://www.w3.org/2000/svg" xmlns:xlink="http://www.w3.org/1999/xlink" xml:space="preserve" xmlns:serif="http://www.serif.com/" style="fill-rule:evenodd;clip-rule:evenodd;stroke-linejoin:round;stroke-miterlimit:2;"><g id="Layer1"><path d="M1.667,3.771l2.968,-2.969c0.286,-0.285 0.749,-0.285 1.035,0l1.375,1.376c0.286,0.285 0.286,0.749 0,1.035l-2.968,2.968c-0.286,0.286 -0.749,0.286 -1.035,0l-1.375,-1.375c-0.286,-0.286 -0.286,-0.75 -0,-1.035Zm0.353,0.353c-0.09,0.091 -0.09,0.238 0,0.328l1.376,1.376c0.09,0.09 0.237,0.09 0.327,-0l2.969,-2.969c0.09,-0.09 0.09,-0.237 -0,-0.328l-1.376,-1.375c-0.09,-0.091 -0.237,-0.091 -0.327,-0l-2.969,2.968Z"/><path d="M7.141,2.86l-1.64,1.641c-0.088,0.087 -0.229,0.087 -0.317,-0l-1.837,-1.837c-0.087,-0.087 -0.087,-0.229 0,-0.316l1.641,-1.641c0.088,-0.087 0.229,-0.087 0.316,-0l1.837,1.837c0.088,0.087 0.088,0.229 0,0.316Z"/><path d="M3.111,6.626l-0,0.149c-0,0.041 -0.034,0.074 -0.075,0.074l-2.834,0c-0.041,0 -0.075,-0.033 -0.075,-0.074l0,-0.149c0,-0.041 0.034,-0.074 0.075,-0.074l2.834,-0c0.041,-0 0.075,0.033 0.075,0.074Z"/><path d="M7.443,6.626l0,0.149c0,0.041 -0.033,0.074 -0.074,0.074l-3.258,0c-0.041,0 -0.074,-0.033 -0.074,-0.074l0,-0.149c0,-0.041 0.033,-0.074 0.074,-0.074l3.258,-0c0.041,-0 0.074,0.033 0.074,0.074Z"/></g></svg>