<svg xmlns="http://www.w3.org/2000/svg" x="0px" y="0px" viewBox="0 0 32 32"><path d="M15.9 8.5c4.5 0 9 2.5 13.5 7.5-1.6 1.8-3.2 3.2-4.8 4.4l1.4 1.4c1.9-1.4 3.9-3.3 6-5.8-5.9-7.1-11.4-9.5-16.1-9.5-1.6 0-3 .3-4.4.7l1.6 1.6c.9-.2 1.8-.3 2.8-.3z"/><path d="M15.9 23.5c-6.4 0-11.4-5.2-13.4-7.5.9-1.1 2.6-2.9 4.8-4.5l-1.4-1.4C2.2 12.8 0 16 0 16s6.4 9.5 15.9 9.5c1.5 0 3-.2 4.6-.8l-1.6-1.6c-1 .3-2 .4-3 .4z"/><path d="M21.5 16c0-3-2.5-5.5-5.5-5.5-.4 0-.8 0-1.1.1l6.5 6.5c.1-.3.1-.7.1-1.1z"/><path d="M10.5 16c0 3 2.5 5.5 5.5 5.5.4 0 .8 0 1.1-.1l-6.5-6.5c-.1.3-.1.7-.1 1.1z"/><path d="M2.21135 3.62575l1.4142-1.4142 26.23341 26.23341-1.4142 1.4142z"/></svg>
