<svg xmlns="http://www.w3.org/2000/svg" x="0px" y="0px" viewBox="0 0 32 32"><path d="M21.5 2.3c4.5 0 8.2 3.3 8.2 7.4s-3.7 7.4-8.2 7.4-8.2-3.3-8.2-7.4 3.7-7.4 8.2-7.4m0-2.3C15.7 0 11 4.3 11 9.7s4.7 9.7 10.5 9.7S32 15.1 32 9.7 27.3 0 21.5 0z"/><path d="M24.8 6.8c-.1-1.6-1.4-2.9-3-3-1-.1-1.8.2-2.5.8-.7.6-1 1.5-1 2.4 0 .9.9 1 1.1.9.2-.1.6-.3.6-.6 0-.4.2-.8.5-1.1.3-.3.7-.4 1.1-.4.7 0 1.3.6 1.4 1.4.1.7-.6 1.3-1.1 1.4-.6.1-1.3.7-1.3 1.3v1.9c0 .4.4.7.9.7.6 0 .9-.3.9-.8v-1.6c1.4-.3 2.5-1.7 2.4-3.3z"/><path d="M10 31.9c-.3 0-.6-.1-.8-.3l-2.4-2.4H5.3c-2.6 0-5.2-2.1-5.2-5.5V17c0-3.5 2.3-5.5 6.2-5.5h2.6c.6 0 1.1.5 1.1 1.1s-.5 1.1-1.1 1.1H6.3c-3.5 0-3.9 1.8-3.9 3.2v6.6c0 2.1 1.5 3.2 2.9 3.2h2c.3 0 .6.1.8.3l.8 1c0-.6.5-1.1 1.1-1.1h6.5c.6 0 3.9-.6 3.9-3V22c0-.6.5-1.2 1.2-1.2s1.2.5 1.2 1.2v1.9c0 3.8-4 5.3-6.2 5.3h-5.3v1.6c0 .5-.3.9-.7 1.1H10z"/><path d="M9.2 19.8H5.6c-.6 0-1.1-.5-1.1-1.2s.5-1.2 1.1-1.2h3.7c.6 0 1.1.5 1.1 1.2s-.5 1.2-1.2 1.2z"/><path d="M11.7 24.7H5.6c-.6 0-1.1-.5-1.1-1.2s.5-1.2 1.1-1.2h6.1c.6 0 1.1.5 1.1 1.2s-.4 1.2-1.1 1.2z"/><circle cx="17" cy="23.5" r="1.1"/><circle cx="21.5" cy="14.6" r="1.1"/></svg>
