<?xml version="1.0" encoding="utf-8"?>
<svg version="1.1" xmlns="http://www.w3.org/2000/svg" xmlns:xlink="http://www.w3.org/1999/xlink" x="0px" y="0px"
	 width="32px" height="32px" viewBox="0 0 32 32" enable-background="new 0 0 32 32" xml:space="preserve">
<path d="M16.7,1.7L16.7,1.7L16.7,1.7 M16,2.4l14,14.4V30h-7.3c-1.1-5.7-3.5-8.8-6.7-8.8c-3.2,0-5.6,3.1-6.7,8.8H2
	V16.8L16,2.4 M16,0c-0.3,0-0.5,0.1-0.7,0.3l-15,15.4C0.1,15.9,0,16.1,0,16.4V31c0,0.6,0.4,1,1,1h9.2c0.5,0,0.9-0.4,1-0.8
	c0.4-2.2,1.6-8,4.8-8c0,0,0,0,0,0c3.2,0,4.5,5.8,4.9,8c0.1,0.5,0.5,0.8,1,0.8H31c0.6,0,1-0.4,1-1V16.4c0-0.3-0.1-0.5-0.3-0.7
	l-15-15.4C16.5,0.1,16.3,0,16,0L16,0z"/>
</svg>
