<svg xmlns="http://www.w3.org/2000/svg" x="0px" y="0px" viewBox="0 0 32 32"><path d="M22.2 27.8l-.4 1.7c-1.3.5-2.3.9-3 1.1-.7.3-1.6.4-2.6.4-1.5 0-2.7-.4-3.6-1.1-.8-.7-1.3-1.7-1.3-2.8 0-.4 0-.9.1-1.4.1-.5.2-1 .3-1.6l1.6-5.6c.1-.5.3-1 .4-1.5.1-.5.1-.9.1-1.3 0-.7-.1-1.2-.4-1.5-.3-.3-.9-.4-1.7-.4-.4 0-.8.1-1.2.2-.4.1-.8.2-1.1.4l.4-1.7c1-.4 2-.8 3-1.1.9-.3 1.8-.4 2.7-.4 1.5 0 2.7.4 3.5 1.1.8.7 1.2 1.7 1.2 2.8 0 .2 0 .7-.1 1.3-.1.6-.2 1.1-.4 1.6l-1.6 5.5c-.1.4-.2 1-.3 1.5-.1.6-.2 1-.2 1.3 0 .7.2 1.2.5 1.5.3.3.9.4 1.7.4.4 0 .8-.1 1.3-.2.6 0 .9-.1 1.1-.2z"/><path d="M22.6 4.5c0 1-.4 1.8-1.1 2.5-.7.7-1.6 1-2.6 1s-1.9-.3-2.6-1c-.7-.7-1.1-1.5-1.1-2.5s.4-1.8 1.1-2.5c.7-.7 1.6-1 2.6-1s1.9.3 2.6 1c.8.7 1.1 1.5 1.1 2.5z"/></svg>
