<?xml version="1.0" encoding="utf-8"?>
<!-- Generator: Adobe Illustrator 24.2.3, SVG Export Plug-In . SVG Version: 6.00 Build 0)  -->
<svg version="1.1" id="Layer_1" xmlns="http://www.w3.org/2000/svg" xmlns:xlink="http://www.w3.org/1999/xlink" x="0px" y="0px"
	 width="32px" height="32px" viewBox="0 0 32 32" enable-background="new 0 0 32 32" xml:space="preserve">
<path d="M20.1,23.9L19.9,25c-0.9,0.3-1.5,0.6-2,0.7c-0.5,0.2-1.1,0.3-1.7,0.3c-1,0-1.8-0.3-2.4-0.7c-0.5-0.5-0.9-1.1-0.9-1.9
	c0-0.3,0-0.6,0.1-0.9c0.1-0.3,0.1-0.7,0.2-1.1l1.1-3.7c0.1-0.3,0.2-0.7,0.3-1c0.1-0.3,0.1-0.6,0.1-0.9c0-0.5-0.1-0.8-0.3-1
	c-0.2-0.2-0.6-0.3-1.1-0.3c-0.3,0-0.5,0.1-0.8,0.1s-0.5,0.1-0.7,0.3l0.3-1.1c0.7-0.3,1.3-0.5,2-0.7c0.6-0.2,1.2-0.3,1.8-0.3
	c1,0,1.8,0.3,2.3,0.7c0.5,0.5,0.8,1.1,0.8,1.9c0,0.1,0,0.5-0.1,0.9c-0.1,0.4-0.1,0.7-0.3,1.1L17.4,21c-0.1,0.3-0.1,0.7-0.2,1
	c-0.1,0.4-0.1,0.7-0.1,0.9c0,0.5,0.1,0.8,0.3,1c0.2,0.2,0.6,0.3,1.1,0.3c0.3,0,0.5-0.1,0.9-0.1C19.8,24,20,23.9,20.1,23.9z"/>
<path d="M20.4,8.3c0,0.7-0.3,1.2-0.7,1.7s-1.1,0.7-1.7,0.7s-1.3-0.2-1.7-0.7c-0.5-0.5-0.7-1-0.7-1.7s0.3-1.2,0.7-1.7S17.3,6,17.9,6
	s1.3,0.2,1.7,0.7C20.2,7.1,20.4,7.7,20.4,8.3z"/>
<path d="M16,2c7.7,0,14,6.3,14,14s-6.3,14-14,14S2,23.7,2,16S8.3,2,16,2 M16,0C7.2,0,0,7.2,0,16s7.2,16,16,16s16-7.2,16-16
	S24.8,0,16,0L16,0z"/>
</svg>
