<svg xmlns="http://www.w3.org/2000/svg" x="0px" y="0px" viewBox="0 0 32 32"><path d="M30.7 21.9c.7-.8 1-1.7.9-2.7 0-1-.5-1.8-.9-2.3.4-1.1.6-2.8-.8-4.1-1.1-1-2.9-1.4-5.4-1.3-1.8.1-3.2.4-3.3.4-.3.1-.7.1-1.1.2 0-.4 0-1.5.8-3.9.9-2.9.9-5-.2-6.5S17.8 0 17.3 0s-1 .2-1.3.6c-.7.9-.7 2.5-.6 3.2-.9 2.4-3.4 8.2-5.5 9.8l-.1.1c-.6.6-1 1.4-1.3 2-.4-.2-.8-.3-1.3-.3H3.3c-1.5 0-2.8 1.3-2.8 2.8v10.9c0 1.5 1.3 2.8 2.8 2.8h4.1c.6 0 1.2-.2 1.6-.5l1.6.2c.2 0 4.5.6 8.9.5.8.1 1.5.1 2.2.1 1.2 0 2.2-.1 3.1-.3 2-.4 3.4-1.3 4.2-2.6.5-1 .5-1.9.5-2.6 1.3-1.2 1.6-2.5 1.5-3.5 0-.5-.2-1-.3-1.3zM3.4 29.7c-.5 0-1-.4-1-1V18.4c0-.5.4-1 1-1h3.9c.5 0 1 .4 1 1v10.4c0 .5-.4 1-1 1H3.4zm25.2-8.8c-.3.3-.3.7-.1 1.1 0 0 .3.5.3 1.1 0 .9-.4 1.6-1.2 2.2-.3.2-.4.7-.3 1 0 0 .3.9-.2 1.6-.4.8-1.3 1.3-2.9 1.6-1.2.3-2.8.3-4.7.1h-.1c-4.1.1-8.4-.5-8.4-.5l-.6-.1c0-.2.1-.4.1-.6V18.1c0-.3 0-.6-.1-.8.1-.4.5-1.3 1.2-2.2 2.9-2.3 5.7-10 5.9-10.4.1-.1.1-.3 0-.4-.1-.7-.1-1.6.1-1.8.4 0 1.2.1 1.8.9.6.9.6 2.5-.2 4.7-1.1 3.3-1.2 5-.3 5.8.4.4 1 .4 1.4.3.4-.1.8-.2 1.2-.2h.1c2-.4 5.5-.7 6.7.4 1.1 1 .3 2.2.2 2.3-.2.4-.2.9.2 1.2 0 0 .7.7.7 1.5.1.3-.2.9-.8 1.5z"/></svg>
