<?xml version="1.0" encoding="UTF-8"?>
<svg width="32px" height="32px" enable-background="new 0 0 32 32" version="1.1" viewBox="0 0 32 32" xml:space="preserve" xmlns="http://www.w3.org/2000/svg">
<path d="m0 8.3c0-0.2 0.1-0.4 0.1-0.7 0.6-2.4 2.7-4.1 5.1-4.1h7.1c1 0 1.8 0.8 1.8 1.8s-0.8 1.8-1.8 1.8h-6.9c-1.2 0-2 0.8-2 2v17.4c0 1.2 0.7 1.9 1.9 1.9h17.4c1.2 0 1.9-0.7 1.9-1.9v-6.9c0-1.2 0.9-2 2.1-1.8 0.8 0.1 1.5 0.9 1.5 1.7v5.7c0 0.9 0 1.7-0.1 2.5-0.5 2.4-2.6 4.2-5.1 4.2h-17.9c-2.6 0-4.8-2-5.2-4.6 0-0.1 0-0.1-0.1-0.2 0.2-6.2 0.2-12.5 0.2-18.8z"/>
<path d="m30.6 0s0.1 0 0.1 0.1c0.8 0.2 1.3 0.9 1.3 1.7v8.4 2.1c0 1.1-0.8 1.9-1.8 1.8-1 0-1.8-0.8-1.8-1.8v-5.9-0.4l-14.6 14.6c-0.5 0.5-1.1 0.8-1.9 0.6-1.2-0.3-1.7-1.8-0.9-2.8 0.1-0.1 0.2-0.2 0.3-0.4l14.2-14.2c0.1-0.1 0.2-0.2 0.3-0.2 0 0 0-0.1-0.1-0.1h-0.3-5.9c-0.8 0-1.5-0.5-1.7-1.3-0.2-0.7 0-1.6 0.7-2 0.3 0 0.5-0.1 0.7-0.2h11.4z"/>
</svg>
