<svg xmlns="http://www.w3.org/2000/svg" x="0px" y="0px" viewBox="0 0 32 32"><path d="M31 15H18.3c-.6 0-1-.4-1-1s.4-1 1-1H31c.6 0 1 .4 1 1s-.4 1-1 1z"/><path d="M26 20c-.3 0-.5-.1-.7-.3-.4-.4-.4-1 0-1.4l4.3-4.3-4.3-4.3c-.4-.4-.4-1 0-1.4.4-.4 1-.4 1.4 0l5 5c.4.4.4 1 0 1.4l-5 5c-.2.2-.4.3-.7.3z"/><path d="M10.7 32c-.3 0-.6 0-.8-.1l-8-2.7C.7 28.8 0 27.8 0 26.7v-24C0 1.2 1.2 0 2.7 0c.3 0 .5 0 .8.1l8 2.7c1.1.4 1.8 1.4 1.8 2.5v24c0 1.5-1.2 2.7-2.6 2.7zm-8-30c-.4 0-.7.3-.7.7v24c0 .3.2.5.5.6l8 2.7h.2c.4 0 .7-.3.7-.7v-24c0-.3-.2-.5-.5-.6L2.9 2h-.2z"/><path d="M20.3 10.7c-.6 0-1-.4-1-1v-6c0-.9-.7-1.7-1.7-1.7h-15c-.6 0-1-.4-1-1s.4-1 1-1h15c2 0 3.7 1.6 3.7 3.7v6c0 .5-.4 1-1 1z"/><path d="M17.7 28h-5.3c-.6 0-1-.4-1-1s.4-1 1-1h5.3c.9 0 1.7-.7 1.7-1.7v-6c0-.6.4-1 1-1s1 .4 1 1v6c-.1 2.1-1.7 3.7-3.7 3.7z"/></svg>
