<?xml version="1.0" encoding="UTF-8"?>
<svg width="32px" height="32px" enable-background="new 0 0 32 32" version="1.1" viewBox="0 0 32 32" xml:space="preserve" xmlns="http://www.w3.org/2000/svg">

	<path d="m12 0c6.6 0 12 5.4 12 12s-5.4 12-12 12-12-5.4-12-12 5.4-12 12-12zm-9 12c0 5 4 9 9 9 4.9 0 9-4 9-9s-4-9-9-9-9 4-9 9z"/>
	<path d="m19.5 23.8c1.7-1.1 3.1-2.5 4.2-4.2l7.3 7.3c0.6 0.6 1 1.4 1 2.3 0 1.4-1.1 2.7-2.5 2.9-1 0.2-2-0.1-2.7-0.9l-7.2-7.2c0-0.1 0-0.2-0.1-0.2z"/>
	<path d="m12 5v2c-1.4 0-2.5 0.5-3.5 1.5-1 0.9-1.5 2.1-1.5 3.5h-2c-0.1-3.4 2.8-7 7-7z"/>

</svg>
