<svg xmlns="http://www.w3.org/2000/svg" x="0px" y="0px" viewBox="0 0 32 32"><path d="M13 8.2c2.8 0 5 2.2 5 5s-2.2 5-5 5-5-2.2-5-5 2.2-5 5-5m0-2.3c-4.1 0-7.3 3.3-7.3 7.3S9 20.6 13 20.6s7.3-3.3 7.3-7.3-3.2-7.4-7.3-7.4z"/><path d="M19.6 23.4c.1 0 .1 0 0 0 2.5 1.3 3.8 2 4 6.3H2.4c.3-4.3 1.5-5 4-6.3 2 1.2 4.3 1.9 6.6 1.9 2.4 0 4.6-.6 6.6-1.9m-.1-2.7C17.6 22.2 15.4 23 13 23s-4.7-.9-6.4-2.4C2.7 22.9 0 23.3 0 32h26.1c0-8.9-2.7-9.1-6.6-11.3z"/><path d="M30.8 11.4H25c-.6 0-1.2-.5-1.2-1.1s.5-1.1 1.2-1.1h5.8c.6 0 1.2.5 1.2 1.1s-.5 1.1-1.2 1.1z"/><path d="M30.8 6.9h-7.1c-.6 0-1.2-.5-1.2-1.1s.5-1.1 1.2-1.1h7.1c.6 0 1.2.5 1.2 1.1s-.5 1.1-1.2 1.1z"/><path d="M30.8 2.3h-7.1c-.6 0-1.2-.5-1.2-1.1S23.1 0 23.7 0h7.1c.7 0 1.2.5 1.2 1.1s-.5 1.2-1.2 1.2z"/></svg>
