<svg xmlns="http://www.w3.org/2000/svg" x="0px" y="0px" viewBox="0 0 32 32"><path d="M14.5 11.7l.6.2-.2.8-.4 1.5 1.2.9c.3.2.6.5.8.8l.9 1.1 1.4-.3 1-.2.3.6-.8.5-1.2.8.2 1.5c.1.4.1.8 0 1.2l-.2 1.4 1.2.8.8.5-.2.5-1-.2-1.4-.3-.6 1.2c-.2.3-.5.6-.8.8l-1.2.9.3 1.4.2.9-.6.3-.5-.8-.8-1.2-1.5.3h-1.1l-1.4-.2-.8 1.2-.5.8-.5-.2.2-1 .3-1.4L7 26c-.3-.2-.6-.5-.8-.8L5.3 24l-1.4.3-.9.2-.4-.5.8-.5 1-.7V20.2l.2-1.4-1.3-.8-.8-.5.2-.5.8.2 1.5.2.9-1.2c.1-.2.4-.5.8-.8l1.1-.9-.3-1.4-.2-1 .6-.3.5.8.8 1.2 1.5-.2h1.1l1.4.2.8-1.2.5-.9m-.3-2.5c-.5 0-1 .3-1.3.7l-.9 1.4h-.8c-.3 0-.6 0-1 .1L9.4 10c-.3-.4-.8-.7-1.3-.7-.2 0-.4 0-.6.1l-1.9.8c-.7.3-1 1-.8 1.7l.4 1.7c-.4.4-.9.8-1.2 1.3l-1.6-.3h-.3c-.5 0-1 .3-1.3.9L0 17.4c-.2.4-.1.8 0 1.1.1.3.3.5.6.6L2 20c-.1.6 0 1.1 0 1.7l-1.4.9c-.6.4-.8 1.2-.6 1.8l1 1.8c.2.6.8.9 1.4.9h.4l1.6-.4c.4.5.8.9 1.2 1.2l-.3 1.6c0 .3-.1.6.1.9.1.3.4.6.8.8l1.8.7c.2.1.4.1.6.1.5 0 1-.3 1.2-.7l.9-1.4h.8c.3 0 .6 0 1-.1l.9 1.4c.3.4.8.7 1.2.7.2 0 .4 0 .6-.1l1.9-.8c.6-.4 1-1.1.8-1.7l-.4-1.6c.5-.4.9-.8 1.2-1.2l1.6.3h.3c.6 0 1.1-.4 1.3-.9l.8-1.9c.2-.4.1-.8 0-1.1-.1-.3-.3-.5-.6-.6l-1.4-.9c.1-.6 0-1.2-.1-1.8l1.4-.9c.6-.4.8-1.2.6-1.8l-.8-1.9c-.3-.7-.8-1-1.4-1H20l-1.7.4c-.3-.4-.8-.9-1.2-1.2l.4-1.5c0-.3 0-.7-.1-.9-.1-.3-.4-.6-.8-.8l-1.9-.8h-.5z"/><path d="M11.3 18.2c1 0 1.9.6 2.3 1.5.3.6.3 1.2 0 1.8-.2.6-.7 1.1-1.3 1.4-.2.1-.5.1-.9.1-1 0-1.9-.6-2.3-1.5-.3-.6-.3-1.2 0-1.8.2-.6.7-1.1 1.3-1.4.2-.1.5-.1.9-.1m0-2.3c-.6 0-1.2.1-1.8.4-2.4 1-3.5 3.8-2.5 6.1.8 1.8 2.5 2.9 4.4 2.9.6 0 1.2-.1 1.8-.4 2.4-1.1 3.5-3.9 2.5-6.2-.8-1.7-2.6-2.8-4.4-2.8z"/><path d="M25.2 3.6l1 .3c.1 0 .3.1.4.1l.9.5.5.9c.1.1.1.2.1.3l.3 1-.3 1c0 .1-.1.2-.1.3l-.5 1-.9.5c-.1.1-.2.1-.3.1l-1.3.3-.5-.2c-.1-.1-.3-.1-.4-.2-.1 0-.2-.1-.3-.1l-.8-.5-.4-.7c0-.1-.1-.2-.2-.4l-.3-1 .3-1c0-.1.1-.2.1-.3l.6-1 .8-.5c.1 0 .2-.1.4-.2l.9-.2m.6-3.6h-1.2c-.4 0-.8.3-.8.7l-.2 1-.9.3-.7-.5c-.2-.1-.3-.2-.5-.2s-.4.1-.6.3l-.8.8c-.3.3-.3.8-.1 1.1l.5.8c-.2.3-.3.6-.4.9l-.9.2c-.4.1-.7.4-.7.8v1.2c0 .4.3.8.7.8l1 .2c.1.3.2.6.4.9l-.6.8c-.2.3-.2.7.1 1l.8.8c.2.2.4.3.6.3s.3 0 .5-.2l.8-.5c.3.2.6.3.9.4l.2.9c.1.4.4.7.8.7h1.2c.4 0 .8-.3.8-.7l.2-.9c.3-.1.6-.2.9-.4l.8.5c.1.1.3.2.5.2s.4-.1.6-.3l.8-.8c.3-.3.3-.8.1-1l-.6-.9c.2-.3.3-.6.4-.9l.9-.2c.4 0 .7-.4.7-.8V6.1c0-.4-.3-.8-.7-.8l-.9-.2c-.1-.3-.2-.6-.4-.9l.5-.8c.3-.3.2-.8-.1-1l-.8-.8c-.2-.2-.4-.3-.6-.3s-.3 0-.5.2l-.7.5c-.3-.2-.6-.3-1-.4l-.2-.9c0-.4-.4-.7-.8-.7z"/></svg>
