<svg xmlns="http://www.w3.org/2000/svg" x="0px" y="0px" viewBox="0 0 32 32">
  <path d="M25.5 28.3c-.1-.1-.2-.2-.3-.2h-.1C16.8 28.1 10 21.4 10 13c0-4.8 2.3-9.4 6.2-12.2.2-.1.3-.4.1-.6 0-.1-.1-.2-.3-.2C7.2 0 0 7.2 0 16s7.2 16 16 16c3.4 0 6.7-1.1 9.4-3.1.2-.1.3-.4.1-.6z"/>
  <path d="M20.2 4.2l1.1 2.1c0 .1.1.1.1.1l2.4.3c.2 0 .2.2.1.3l-1.7 1.7s-.1.1-.1.2l.4 2.3c0 .2-.1.3-.3.2l-2.1-1.1h-.2l-2.1 1.1c-.1.1-.3 0-.3-.2l.5-2.3c0-.1 0-.1-.1-.2L16.2 7c-.1-.1-.1-.3.1-.3l2.4-.3c.1 0 .1 0 .1-.1l1.1-2.1c.1-.1.3-.1.3 0zM27.9 12.6l.5 1.1.1.1 1.2.2c.1 0 .1.1.1.2l-.9.9v.1l.2 1.2c0 .1-.1.1-.1.1l-1.1-.6h-.1l-1.1.6c-.1 0-.2 0-.1-.1l.2-1.2v-.1l-.9-.9c-.1-.1 0-.2.1-.2l1.2-.2s.1 0 .1-.1l.5-1.1c-.1-.1 0-.1.1 0zM20.5 16.9l.8 1.6.1.1 1.8.3c.1 0 .2.2.1.2L22 20.4s-.1.1 0 .1l.3 1.8c0 .1-.1.2-.2.2l-1.6-.8h-.1l-1.6.8c-.1.1-.2 0-.2-.2l.3-1.8v-.1l-1.3-1.3c-.1-.1 0-.2.1-.2l1.8-.3s.1 0 .1-.1l.8-1.6c-.1-.1.1-.1.1 0z"/>
</svg>