<?xml version="1.0" encoding="UTF-8" standalone="no"?><!DOCTYPE svg PUBLIC "-//W3C//DTD SVG 1.1//EN" "http://www.w3.org/Graphics/SVG/1.1/DTD/svg11.dtd"><svg width="100%" height="100%" viewBox="0 0 134 134" version="1.1" xmlns="http://www.w3.org/2000/svg" xmlns:xlink="http://www.w3.org/1999/xlink" xml:space="preserve" xmlns:serif="http://www.serif.com/" style="fill-rule:evenodd;clip-rule:evenodd;stroke-linejoin:round;stroke-miterlimit:2;"><path d="M66.667,126.667c-5.25,-0 -9.375,-4.125 -9.375,-9.375l-0,-101.25c-0,-5.25 4.125,-9.375 9.375,-9.375c5.25,-0 9.375,4.125 9.375,9.375l-0,101.25c-0,5.25 -4.125,9.375 -9.375,9.375Z" style="fill-rule:nonzero;"/><path d="M6.667,66.667c-0,-5.25 4.125,-9.375 9.375,-9.375l101.25,-0c5.25,-0 9.375,4.125 9.375,9.375c-0,5.25 -4.125,9.375 -9.375,9.375l-101.25,-0c-5.25,-0 -9.375,-4.125 -9.375,-9.375Z" style="fill-rule:nonzero;"/></svg>