<svg xmlns="http://www.w3.org/2000/svg" x="0px" y="0px" viewBox="0 0 32 32"><path d="M15.8 0C7 .1-.1 7.4 0 16.2.1 25 7.4 32.1 16.2 32c8.8-.1 15.9-7.4 15.8-16.2C31.9 7 24.6-.1 15.8 0zm-.1 25.7c-1.4 0-2.4-1-2.4-2.4 0-1.3 1-2.3 2.3-2.3h.1c1.4 0 2.3 1 2.3 2.4.1 1.4-.9 2.3-2.3 2.3zm5.8-11.3c-.3.5-1 1-1.9 1.7l-1 .7c-.5.4-.9.8-1 1.2-.1.3-.1.4-.2 1v.2h-3.7v-.3c0-1.3.1-2.1.6-2.7.8-1 2.7-2.2 2.8-2.2.3-.2.5-.4.7-.7.4-.5.6-1 .6-1.4 0-.6-.2-1.1-.5-1.6s-.9-.7-1.8-.7-1.5.3-1.9.9c-.4.6-.6 1.2-.6 1.9v.2H9.7v-.2c.1-2.4.9-4 2.5-5 1-.6 2.2-.9 3.6-.9 1.9 0 3.4.5 4.7 1.3 1.3.9 1.9 2.3 1.9 4 0 .8-.3 1.7-.9 2.6z"/></svg>
