<svg xmlns="http://www.w3.org/2000/svg" viewBox="0 0 32 32" xml:space="preserve"><path d="M4.3 26.9c-1.4-1.5-2.6-3.3-3.4-5.4C-1.5 14.9.8 7.4 6.4 3.2 9 1.3 12 .2 15.2 0c.3 0 .5.2.5.5v1.8c0 .3-.2.5-.5.5-2.6.1-5.2 1.1-7.4 2.7C2 10 1 18.4 5.5 24.1c.2.3.5.6.8.9l-2 1.9z"/><path d="m12.2 29.3-6.3-8.6c-.3-.4-.9-.2-.9.3v4.1c0 .2-.1.3-.3.4l-3.6 1.9c-.4.2-.3.8.1.9L11.7 30c.5.2.8-.3.5-.7z"/><g><path d="M16 32c-.4 0-.5-.1-.5-.4 0-.5.1-1.9.1-1.9 0-.3.2-.5.5-.5 2.9 0 5.8-1 8.1-2.8 3.7-2.9 5.6-7.5 5-12.4-.2-1.2-.5-2.4-1.1-3.6-.7-1.4-1.5-2.5-2.4-3.6l2-1.9c.3.4.6.7 1 1.1 5.4 7 4.2 17-2.7 22.5-3 2.3-6.4 3.5-10 3.5z"/><path d="m19.8 2.6 6.3 8.6c.3.4.9.2.9-.3v-4c0-.2.1-.3.3-.4l3.6-1.9c.4-.2.3-.8-.2-.9L20.2 1.9c-.4-.1-.7.4-.4.7z"/></g></svg>