<svg xmlns="http://www.w3.org/2000/svg" x="0px" y="0px" viewBox="0 0 32 32"><path d="M30.4 12.6l-2.2-.4c-.2-.8-.5-1.5-.9-2.2l1.3-1.9c.6-.8.5-1.9-.2-2.5l-2-2C26 3.2 25.5 3 25 3c-.4 0-.8.1-1.1.4L22 4.7c-.7-.4-1.5-.7-2.3-.9l-.4-2.2c-.2-1-1-1.7-2-1.7h-2.8c-1 0-1.8.7-2 1.7l-.4 2.3c-.7.2-1.5.5-2.2.9L8.2 3.5c-.4-.2-.8-.4-1.2-.4-.5 0-1 .2-1.4.6l-2 2c-.6.7-.7 1.8-.2 2.6l1.3 1.9c-.4.7-.7 1.4-.9 2.2l-2.2.4c-1 .2-1.7 1-1.7 2v2.8c0 1 .7 1.8 1.7 2l2.3.4c.2.7.5 1.5.9 2.2L3.5 24c-.5.6-.5 1.7.2 2.4l2 2c.4.4.9.6 1.4.6.4 0 .8-.1 1.1-.4l1.9-1.3c.7.4 1.4.6 2.1.9l.4 2.2c.2 1 1 1.7 2 1.7h2.8c1 0 1.8-.7 2-1.7l.4-2.2c.8-.2 1.5-.5 2.2-.9l1.9 1.3c.3.2.7.4 1.1.4.5 0 1-.2 1.4-.6l2-2c.7-.7.8-1.8.2-2.5L27.3 22c.4-.7.7-1.4.9-2.2l2.2-.4c1-.2 1.7-1 1.7-2v-2.8c-.1-1-.8-1.8-1.7-2zm-.2 4.8c0 .1-.1.2-.1.2l-2.8.4c-.4.1-.6.3-.7.7-.3 1-.6 1.9-1.2 2.8-.2.3-.2.7 0 1l1.7 2.3v.2l-2 2-.1.1h-.1l-2.3-1.7c-.3-.2-.7-.2-1 0-.9.5-1.8.9-2.8 1.2-.3.1-.6.4-.7.7l-.5 2.8c0 .1-.1.1-.2.1h-2.8c-.1 0-.2-.1-.2-.1l-.4-2.8c-.1-.4-.3-.6-.7-.7-1-.2-1.9-.6-2.7-1.1-.1-.1-.3-.1-.5-.1s-.4.1-.5.2l-2.3 1.7h-.1s-.1 0-.1-.1l-2-2c-.1-.2-.2-.2-.1-.3l1.6-2.3c.2-.3.2-.7 0-1-.5-.9-.9-1.8-1.2-2.8-.1-.3-.4-.6-.7-.7L2 17.6c-.1 0-.1-.1-.1-.2v-2.8c0-.1.1-.2.1-.2l2.7-.4c.4-.1.6-.3.7-.7.2-1 .6-1.9 1.1-2.8.2-.3.2-.7 0-1L4.9 7.2V7l2-2h.2l2.3 1.6c.3.2.7.2 1 0 .9-.5 1.8-.9 2.8-1.2.3-.1.6-.4.7-.7l.5-2.8c0-.1.1-.1.2-.1h2.8c.1 0 .2.1.2.1l.4 2.8c.1.4.3.6.7.7 1 .3 2 .6 2.9 1.2.3.2.7.2 1 0l2.3-1.7h.1s.1 0 .1.1l2 2c.1.1.1.2 0 .2l-1.7 2.3c-.2.3-.2.7 0 1 .5.9.9 1.8 1.2 2.8.1.3.4.6.7.7l2.8.5c.1 0 .1.1.1.2v2.7z"/><path d="M16 9.1c-3.8 0-6.9 3.1-6.9 6.9s3.1 6.9 6.9 6.9 6.9-3.1 6.9-6.9-3.1-6.9-6.9-6.9zm0 12c-2.8 0-5.1-2.3-5.1-5.1s2.3-5.1 5.1-5.1 5.1 2.3 5.1 5.1-2.3 5.1-5.1 5.1z"/></svg>
