<svg xmlns="http://www.w3.org/2000/svg" x="0px" y="0px" viewBox="0 0 32 32"><path d="M30.3 12.6l-2.2-.4c-.2-.8-.5-1.5-.9-2.2l1.3-1.9c.6-.8.5-1.9-.2-2.5l-2-2c-.4-.4-.9-.6-1.4-.6-.4 0-.8.1-1.1.4L22 4.8c-.7-.4-1.5-.7-2.3-.9l-.4-2.2c-.2-1-1-1.7-2-1.7h-2.8c-1 0-1.8.7-2 1.7L12.1 4c-.7.2-1.5.5-2.2.9L8.2 3.6c-.3-.2-.7-.4-1.1-.4-.5 0-1 .2-1.4.6l-2 2c-.6.7-.7 1.8-.2 2.5l1.3 1.9c-.4.7-.7 1.4-.9 2.2l-2.2.4c-1 .2-1.7 1-1.7 2v2.8c0 1 .7 1.8 1.7 2L4 20c.2.7.5 1.5.9 2.2L3.6 24c-.5.6-.5 1.7.2 2.4l2 2c.4.4.9.6 1.4.6.4 0 .8-.1 1.1-.4l1.9-1.3c.7.4 1.4.6 2.1.9l.4 2.2c.2 1 1 1.7 2 1.7h2.8c1 0 1.8-.7 2-1.7l.4-2.2c.8-.2 1.5-.5 2.2-.9l1.9 1.3c.3.2.7.4 1.1.4.5 0 1-.2 1.4-.6l2-2c.7-.7.8-1.8.2-2.5L27.2 22c.4-.7.7-1.4.9-2.2l2.2-.4c1-.2 1.7-1 1.7-2v-2.8c-.1-1-.8-1.8-1.7-2zm-.5 4.6c0 .1-.1.2-.1.2l-3 .5c-.4.1-.6.3-.7.7-.3.9-.6 1.8-1.1 2.6-.2.3-.2.7 0 .9l1.8 2.6v.2L25 26.6l-.1.1h-.1l-2.6-1.8c-.3-.2-.7-.2-.9 0-.8.5-1.7.8-2.6 1.1-.3.1-.6.4-.7.7l-.6 3c0 .1-.1.1-.2.1h-2.4c-.1 0-.2-.1-.2-.1l-.5-3c-.1-.4-.3-.6-.7-.7-.9-.2-1.8-.6-2.5-1-.1-.1-.3-.1-.5-.1s-.3.1-.4.2l-2.6 1.8h-.1s-.1 0-.1-.1l-1.7-1.7c-.1-.2-.2-.2-.1-.3l1.7-2.6c.2-.3.2-.7 0-.9-.5-.8-.8-1.7-1.1-2.6-.1-.3-.4-.6-.7-.7l-3-.6c-.1 0-.1-.1-.1-.2v-2.4c0-.1.1-.2.1-.2l3-.5c.4-.1.6-.3.7-.6.2-.9.6-1.8 1-2.6.2-.3.2-.7 0-.9L5.3 7.3v-.2L7 5.4h.2l2.6 1.7c.3.2.7.2.9 0 .8-.5 1.7-.8 2.6-1.1.3-.1.6-.4.7-.7l.5-3c0-.1.1-.1.2-.1h2.4c.1 0 .2.1.2.1l.6 3c.1.4.3.6.7.7.9.3 1.9.6 2.7 1.1.3.2.7.2.9 0l2.6-1.8h.1s.1 0 .1.1l1.7 1.7c.1.1.1.2 0 .2l-1.8 2.6c-.2.3-.2.7 0 .9.5.8.8 1.7 1.1 2.6.1.3.4.6.7.7l3 .6c.1 0 .1.1.1.2v2.3z"/><path d="M16 9.1c-3.8 0-6.9 3.1-6.9 6.9s3.1 6.9 6.9 6.9 6.9-3.1 6.9-6.9-3.1-6.9-6.9-6.9zm0 11.7c-2.6 0-4.8-2.1-4.8-4.8s2.1-4.8 4.8-4.8 4.8 2.1 4.8 4.8-2.2 4.8-4.8 4.8z"/></svg>
