<svg xmlns="http://www.w3.org/2000/svg" x="0px" y="0px" viewBox="0 0 32 32"><path d="M30.4 12.6l-2.2-.4c-.2-.8-.5-1.5-.9-2.2l1.3-1.9c.6-.8.5-1.9-.2-2.5l-2-2C26 3.2 25.5 3 25 3c-.4 0-.8.1-1.1.4L22 4.7c-.7-.4-1.5-.7-2.3-.9l-.4-2.2c-.2-1-1-1.7-2-1.7h-2.8c-1 0-1.8.7-2 1.7l-.4 2.3c-.7.2-1.5.5-2.2.9L8.2 3.5c-.4-.2-.8-.4-1.2-.4-.5 0-1 .2-1.4.6l-2 2c-.6.7-.7 1.8-.2 2.6l1.3 1.9c-.4.7-.7 1.4-.9 2.2l-2.2.4c-1 .2-1.7 1-1.7 2v2.8c0 1 .7 1.8 1.7 2l2.3.4c.2.7.5 1.5.9 2.2L3.5 24c-.5.6-.5 1.7.2 2.4l2 2c.4.4.9.6 1.4.6.4 0 .8-.1 1.1-.4l1.9-1.3c.7.4 1.4.6 2.1.9l.4 2.2c.2 1 1 1.7 2 1.7h2.8c1 0 1.8-.7 2-1.7l.4-2.2c.8-.2 1.5-.5 2.2-.9l1.9 1.3c.3.2.7.4 1.1.4.5 0 1-.2 1.4-.6l2-2c.7-.7.8-1.8.2-2.5L27.3 22c.4-.7.7-1.4.9-2.2l2.2-.4c1-.2 1.7-1 1.7-2v-2.8c-.1-1-.8-1.8-1.7-2zM16 22.9c-3.8 0-6.9-3.1-6.9-6.9s3.1-6.9 6.9-6.9 6.9 3.1 6.9 6.9-3.1 6.9-6.9 6.9z"/></svg>
