<svg xmlns="http://www.w3.org/2000/svg" x="0px" y="0px" viewBox="0 0 32 32">
  <path d="M31.9 14.2c-.1-.2-.2-.3-.3-.4l-4-4c-.5-.5-1.4-.5-1.9 0s-.5 1.4 0 1.9l1.7 1.7H20c-.7 0-1.3.6-1.3 1.3S19.3 16 20 16h7.4l-1.7 1.7c-.5.5-.5 1.4 0 1.9.3.3.6.4.9.4s.7-.1.9-.4l4-4c.1-.1.2-.3.3-.4.2-.3.2-.7.1-1z"/>
  <path d="M22.6 10.6c.7 0 1.4-.5 1.4-1.3v-8c0-.7-.6-1.3-1.3-1.3H1.2c-.1 0-.1 0-.2.1C.9.1.7.2.6.3H.5C.4.4.2.5.2.7v.1C.1.9 0 1 0 1.1V28c0 .6.4 1.2 1.1 1.3L14.4 32h.3c.3 0 .6-.1.8-.3.3-.3.5-.6.5-1v-1.3h6.7c.7 0 1.3-.6 1.3-1.3v-8c0-.8-.6-1.4-1.3-1.4s-1.3.6-1.3 1.3v6.7H16V5.3c0-.6-.4-1.1-1-1.3l-4.6-1.4h10.9v6.7c0 .7.6 1.3 1.3 1.3zm-9.9-4.7c.5.2.8.6.8 1.1v20.8c0 .3-.2.6-.4.8-.2.2-.4.3-.7.3h-.3l-9-1.9c-.6-.1-.9-.6-.9-1.1V4.1c0-.1.1-.2.2-.3v-.1c0-.2.2-.3.3-.3h.1c.1-.1.3-.2.3-.2.1-.1.1-.1.2-.1h.1l9.3 2.8z"/>
</svg>