<svg xmlns="http://www.w3.org/2000/svg" width="32" height="32"><path d="M16 0C7.2 0 0 7.2 0 16s7.2 16 16 16 16-7.2 16-16S24.8 0 16 0zm0 30.3c-3.9 0-7.5-1.6-10.1-4.2-1-1-1.9-2.2-2.6-3.5-1-2-1.6-4.2-1.6-6.6C1.7 8.1 8.1 1.7 16 1.7c3.7 0 7.1 1.4 9.7 3.8 1.3 1.2 2.4 2.7 3.2 4.3.9 1.9 1.4 4 1.4 6.2 0 7.9-6.4 14.3-14.3 14.3z"/><path d="M9.3 15.4l.7-.7c.3-.3.9-.3 1.2 0l.7.7c.3.3.9.3 1.2 0 .3-.3.3-.9 0-1.2l-.7-.7c-.3-.3-.3-.9 0-1.2l.7-.7c.3-.3.3-.9 0-1.2-.3-.3-.9-.3-1.2 0l-.7.6c-.3.3-.9.3-1.2 0l-.7-.7c-.3-.3-.9-.3-1.2 0-.3.3-.3.9 0 1.2l.7.7c.3.3.3.9 0 1.2l-.8.8c-.3.3-.3.9 0 1.2.4.3.9.3 1.3 0zM20.1 15.4l.7-.7c.3-.3.9-.3 1.2 0l.7.7c.3.3.9.3 1.2 0 .3-.3.3-.9 0-1.2l-.7-.7c-.3-.3-.3-.9 0-1.2l.7-.7c.3-.3.3-.9 0-1.2-.3-.3-.9-.3-1.2 0l-.7.6c-.3.3-.9.3-1.2 0l-.7-.7c-.3-.3-.9-.3-1.2 0-.3.3-.3.9 0 1.2l.7.7c.3.3.3.9 0 1.2l-.7.7c-.3.3-.3.9 0 1.2.3.4.8.4 1.2.1zM24.6 20.5H8.2c-.5 0-.9.4-.9.9s.4.9.9.9h9.3v1.3c0 1.8 1.4 3.3 3.1 3.5h.5c1.7 0 3.1-1.2 3.5-2.7.1-.3.1-.6.1-.8l-.1-3.1zm-5.4 1.8h3.7v1.8c0 .2-.1.5-.3.7-1.6 1.5-3.4.4-3.4-1.1v-1.4z"/></svg>
