<svg xmlns="http://www.w3.org/2000/svg" x="0px" y="0px" viewBox="0 0 32 32">
  <path d="M16 22.5c-3.6 0-6.5-2.9-6.5-6.5s2.9-6.5 6.5-6.5 6.5 2.9 6.5 6.5-2.9 6.5-6.5 6.5zM16 7.3c-.5 0-.9-.4-.9-.9V.9c0-.5.4-.9.9-.9s.9.4.9.9v5.4c0 .5-.4 1-.9 1zM9.2 10.1c-.2 0-.5-.1-.7-.3L4.7 6c-.4-.4-.4-1 0-1.3.4-.4 1-.4 1.3 0l3.8 3.8c.4.4.4 1 0 1.3-.2.2-.4.3-.6.3zM6.3 16.9H.9c-.5 0-.9-.4-.9-.9s.4-.9.9-.9h5.4c.5 0 .9.4.9.9s-.4.9-.9.9zM5.3 27.6c-.2 0-.5-.1-.7-.3-.4-.4-.4-1 0-1.3l3.8-3.8c.4-.4 1-.4 1.3 0 .4.4.4 1 0 1.3L6 27.3c-.2.2-.4.3-.7.3zM16 32c-.5 0-.9-.4-.9-.9v-5.4c0-.5.4-.9.9-.9s.9.4.9.9v5.4c0 .5-.4.9-.9.9zM26.7 27.6c-.2 0-.5-.1-.7-.3l-3.8-3.8c-.4-.4-.4-1 0-1.3.4-.4 1-.4 1.3 0l3.8 3.8c.4.4.4 1 0 1.3-.2.2-.4.3-.6.3zM31.1 16.9h-5.4c-.5 0-.9-.4-.9-.9s.4-.9.9-.9h5.4c.5 0 .9.4.9.9s-.4.9-.9.9zM22.8 10.1c-.2 0-.5-.1-.7-.3-.4-.4-.4-1 0-1.3L26 4.7c.4-.4 1-.4 1.3 0s.4 1 0 1.3l-3.8 3.8c-.2.2-.4.3-.7.3z"/>
</svg>